:FULLY-SPECIFIED
:FORCE-ALL-JOINTS-BE-3DOF
:DEGREES
1733
root -5.1333 15.5419 26.8557 -172.889 -12.0695 -171.639
lfemur -47.6218 22.2386 -22.6953
ltibia 62.8155 -0 0
lfoot -17.3846 33.8374 -0.250435
ltoes -2.75523 0 0
rfemur -22.836 -15.4937 15.7325
rtibia 69.146 -0 0
rfoot -8.16562 -24.7065 -0.0119575
rtoes 10.9215 -0 0
lowerback 15.0689 1.7299 -4.66427
upperback -1.04388 1.71082 3.40764
thorax -9.77148 1.14471 6.01096
lowerneck 4.85121 -14.9814 -15.7827
upperneck -3.16489 -21.3653 22.245
head 2.62518 -11.0634 8.42379
lclavicle -7.05686e-14 -3.97569e-15 0
lhumerus -46.2398 -48.0593 119.523
lradius 95.3217 -0 0
lwrist 39.1287 0 0
lhand -4.86124 41.5392 0.161833
lfingers 7.12502 -0 0
lthumb 20.9231 70.3916 0.145813
rclavicle -7.05686e-14 -3.97569e-15 0
rhumerus 53.9251 31.983 -21.5269
rradius 111.522 -0 0
rwrist -16.4727 0 0
rhand 6.69421 -27.4156 0.15912
rfingers 7.12502 -0 0
rthumb 31.9528 -54.276 0.250452
1734
root -5.05466 15.5416 26.887 -172.741 -9.21656 -171.551
lfemur -47.0356 21.8934 -21.9259
ltibia 63.2586 -0 0
lfoot -17.0787 33.2665 -0.287479
ltoes -3.51235 0 0
rfemur -23.0111 -16.2193 16.0724
rtibia 68.726 -0 0
rfoot -8.36641 -24.6648 -0.0137231
rtoes 10.2802 -0 0
lowerback 15.0468 1.87337 -4.54028
upperback -1.04273 1.91953 3.31711
thorax -9.76059 1.23597 5.7926
lowerneck 4.57478 -14.7433 -15.5739
upperneck -2.90304 -21.0079 21.9374
head 2.63718 -10.8563 8.32386
lclavicle -7.05686e-14 -3.97569e-15 0
lhumerus -47.1187 -47.0795 119.303
lradius 95.6339 -0 0
lwrist 38.4036 0 0
lhand -5.15058 41.1484 0.18575
lfingers 7.12502 -0 0
lthumb 20.6447 70.0256 0.16736
rclavicle -7.05686e-14 -3.97569e-15 0
rhumerus 52.5089 31.2607 -22.6865
rradius 109.162 -0 0
rwrist -15.657 0 0
rhand 5.93899 -27.5623 0.182676
rfingers 7.12502 -0 0
rthumb 31.2291 -54.5169 0.287527
1735
root -4.97603 15.5413 26.9184 -172.58 -6.1946 -171.45
lfemur -46.4217 21.5198 -21.1172
ltibia 63.728 -0 0
lfoot -16.7542 32.6616 -0.323394
ltoes -4.3144 0 0
rfemur -23.2021 -16.9868 16.4365
rtibia 68.281 -0 0
rfoot -8.57912 -24.6206 -0.0154341
rtoes 9.60086 -0 0
lowerback 15.0237 2.0254 -4.40898
upperback -1.04186 2.14061 3.2212
thorax -9.74943 1.33269 5.5613
lowerneck 4.28325 -14.4901 -15.3543
upperneck -2.62858 -20.6278 21.6143
head 2.64949 -10.6368 8.21813
lclavicle -7.05686e-14 -3.97569e-15 0
lhumerus -48.0386 -46.0442 119.051
lradius 95.9645 -0 0
lwrist 37.6355 0 0
lhand -5.45726 40.7343 0.208933
lfingers 7.12502 -0 0
lthumb 20.3495 69.6378 0.188245
rclavicle -7.05686e-14 -3.97569e-15 0
rhumerus 51.0393 30.4694 -23.8822
rradius 106.662 -0 0
rwrist -14.7928 0 0
rhand 5.13887 -27.718 0.205519
rfingers 7.12502 -0 0
rthumb 30.4623 -54.7727 0.32348
1736
root -4.89739 15.541 26.9498 -172.406 -3.02149 -171.336
lfemur -45.7848 21.1189 -20.2748
ltibia 64.2209 -0 0
lfoot -16.4131 32.0261 -0.357419
ltoes -5.15665 0 0
rfemur -23.4092 -17.7916 16.8234
rtibia 67.8138 -0 0
rfoot -8.80249 -24.5742 -0.0170543
rtoes 8.88745 -0 0
lowerback 14.9999 2.18511 -4.27115
upperback -1.04135 2.37279 3.12046
thorax -9.73813 1.4343 5.31842
lowerneck 3.97854 -14.2231 -15.1255
upperneck -2.34355 -20.2272 21.2779
head 2.66197 -10.4063 8.10723
lclavicle -7.05686e-14 -3.97569e-15 0
lhumerus -48.9935 -44.96 118.766
lradius 96.3118 -0 0
lwrist 36.8289 0 0
lhand -5.77948 40.2993 0.230892
lfingers 7.12502 -0 0
lthumb 20.0395 69.2305 0.208026
rclavicle -7.05686e-14 -3.97569e-15 0
rhumerus 49.5296 29.6106 -25.1019
rradius 104.037 -0 0
rwrist -13.8854 0 0
rhand 4.29859 -27.8818 0.227164
rfingers 7.12502 -0 0
rthumb 29.6568 -55.0417 0.357546
1737
root -4.81875 15.5407 26.9811 -172.219 0.284862 -171.207
lfemur -45.1297 20.6919 -19.4045
ltibia 64.7346 -0 0
lfoot -16.0572 31.3637 -0.388848
ltoes -6.03437 0 0
rfemur -23.632 -18.6288 17.2317
rtibia 67.3269 -0 0
rfoot -9.03526 -24.5259 -0.0185502
rtoes 8.14398 -0 0
lowerback 14.9754 2.35161 -4.12757
upperback -1.04126 2.61473 3.01547
thorax -9.72682 1.54024 5.06532
lowerneck 3.66255 -13.9436 -14.8888
upperneck -2.04996 -19.808 20.9305
head 2.67447 -10.1661 7.99179
lclavicle -7.05686e-14 -3.97569e-15 0
lhumerus -49.978 -43.8339 118.449
lradius 96.6736 -0 0
lwrist 35.9883 0 0
lhand -6.11544 39.8459 0.25117
lfingers 7.12502 -0 0
lthumb 19.7162 68.8059 0.226294
rclavicle -7.05686e-14 -3.97569e-15 0
rhumerus 47.9925 28.6868 -26.3341
rradius 101.301 -0 0
rwrist -12.9397 0 0
rhand 3.42286 -28.0529 0.247162
rfingers 7.12502 -0 0
rthumb 28.8173 -55.3226 0.38902
1738
root -4.74011 15.5404 27.0125 -172.016 3.70655 -171.062
lfemur -44.4609 20.2403 -18.5118
ltibia 65.2662 -0 0
lfoot -15.6885 30.6778 -0.417042
ltoes -6.94284 0 0
rfemur -23.8705 -19.4937 17.6601
rtibia 66.8229 -0 0
rfoot -9.2762 -24.4758 -0.0198917
rtoes 7.37448 -0 0
lowerback 14.9505 2.524 -3.97902
upperback -1.04163 2.86516 2.90678
thorax -9.7156 1.64995 4.80336
lowerneck 3.33714 -13.6529 -14.6458
upperneck -1.74974 -19.3724 20.5743
head 2.68689 -9.91739 7.87246
lclavicle -7.05686e-14 -3.97569e-15 0
lhumerus -50.9869 -42.6726 118.098
lradius 97.0482 -0 0
lwrist 35.1183 0 0
lhand -6.46333 39.3764 0.269359
lfingers 7.12502 -0 0
lthumb 19.3815 68.3663 0.242678
rclavicle -7.05686e-14 -3.97569e-15 0
rhumerus 46.4397 27.701 -27.5682
rradius 98.4695 -0 0
rwrist -11.961 0 0
rhand 2.51639 -28.2302 0.265104
rfingers 7.12502 -0 0
rthumb 27.9482 -55.6137 0.417258
